<?xml version="1.0" encoding="UTF-8" standalone="no"?>
<svg width="24px" height="20px" viewBox="0 0 24 20" version="1.1" xmlns="http://www.w3.org/2000/svg" xmlns:xlink="http://www.w3.org/1999/xlink">
    <!-- Generator: sketchtool 39.1 (31720) - http://www.bohemiancoding.com/sketch -->
    <title>icon-twitter</title>
    <desc>Created with sketchtool.</desc>
    <defs></defs>
    <g id="Page-1" stroke="none" stroke-width="1" fill="none" fill-rule="evenodd">
        <g id="sandcastle-website-test" transform="translate(-660.000000, -3391.000000)">
            <g id="footer" transform="translate(0.000000, 3189.000000)">
                <g id="social-icons" transform="translate(612.000000, 199.000000)">
                    <g id="icon-twitter" transform="translate(48.000000, 0.000000)">
                        <rect id="bg" fill="#D8D8D8" opacity="0" x="0" y="0" width="24" height="24"></rect>
                        <path d="M24,5.36764175 C23.1181546,5.76923077 22.1686917,6.04080896 21.1727417,6.1621524 C22.1898222,5.5381004 22.9702412,4.54857349 23.3379116,3.3698086 C22.3856313,3.94763453 21.3333333,4.36800289 20.2091918,4.593355 C19.3132594,3.61249549 18.0327522,3 16.6156013,3 C13.8982215,3 11.693608,5.26074395 11.693608,8.04875406 C11.693608,8.44456482 11.735869,8.82881907 11.8203909,9.19862766 C7.72812115,8.9877212 4.10072196,6.97977609 1.67071668,3.92163236 C1.24669836,4.66991694 1.00440218,5.5381004 1.00440218,6.46262189 C1.00440218,8.21343445 1.87356929,9.75911882 3.19492868,10.664861 C2.38915302,10.6403034 1.62845571,10.4106176 0.963549921,10.0350307 L0.963549921,10.097147 C0.963549921,12.5442398 2.66103187,14.5854099 4.91494982,15.0476706 C4.50220109,15.166125 4.06691319,15.2253521 3.6175383,15.2253521 C3.30058109,15.2253521 2.99066737,15.1950163 2.69061454,15.1357891 C3.31748547,17.1408451 5.13470681,18.6013001 7.29001585,18.6403034 C5.60521219,19.9953052 3.48089452,20.8028169 1.17485473,20.8028169 C0.77760169,20.8028169 0.384574749,20.7797039 0,20.7334778 C2.17925691,22.163597 4.76844515,23 7.54780771,23 C16.6057404,23 21.5573164,15.3076923 21.5573164,8.63524738 C21.5573164,8.41567353 21.5530903,8.19609967 21.5446381,7.98085952 C22.5067794,7.26868906 23.3421377,6.38028169 24,5.36764175" id="twitter" fill="#FFD576"></path>
                    </g>
                </g>
            </g>
        </g>
    </g>
</svg>