<?xml version="1.0" encoding="UTF-8" standalone="no"?>
<svg width="24px" height="21px" viewBox="0 0 24 21" version="1.1" xmlns="http://www.w3.org/2000/svg" xmlns:xlink="http://www.w3.org/1999/xlink">
    <!-- Generator: sketchtool 39.1 (31720) - http://www.bohemiancoding.com/sketch -->
    <title>icon-medium</title>
    <desc>Created with sketchtool.</desc>
    <defs></defs>
    <g id="Page-1" stroke="none" stroke-width="1" fill="none" fill-rule="evenodd">
        <g id="sandcastle-website-test" transform="translate(-756.000000, -3390.000000)">
            <g id="footer" transform="translate(0.000000, 3189.000000)">
                <g id="social-icons" transform="translate(612.000000, 199.000000)">
                    <g id="icon-medium" transform="translate(144.000000, 0.000000)">
                        <rect id="bg" fill="#D8D8D8" opacity="0" x="0" y="0" width="24" height="24"></rect>
                        <path d="M23.9266153,5.68886409 C23.9220288,5.68522234 23.9183595,5.68044254 23.9126264,5.67771123 L23.9043706,5.67361426 L16.6645135,2.08080131 C16.6156669,2.05644711 16.5642976,2.04005924 16.5122403,2.0268579 C16.4468821,2.01024242 16.3801479,2 16.3131844,2 C16.0359279,2 15.7600474,2.13815885 15.6105261,2.3789695 L11.4425058,9.10163808 L16.673228,17.5377495 L23.9488601,5.80357918 C23.9729394,5.76443038 23.961473,5.7161772 23.9266153,5.68886409 Z M9.14671202,7.57028264 L9.14671202,15.2227352 L15.9999236,18.6236736 L9.14671202,7.57028264 Z M17.0296023,19.1346565 L22.67082,21.9340234 C23.4048961,22.2984259 24,22.0432758 24,21.3645449 L24,7.89257742 L17.0296023,19.1346565 Z M7.95696294,5.69978933 L0.886119976,2.1907366 C0.758384773,2.12746121 0.636841401,2.09741678 0.526764385,2.09741678 C0.217172779,2.09741678 0,2.33526851 0,2.73426763 L0,17.8862194 C0,18.2918192 0.299042559,18.7720748 0.664589982,18.9534794 L6.89242647,22.0439587 C7.05203814,22.1231667 7.20408202,22.1607222 7.34144897,22.1607222 C7.72855314,22.1607222 8.00007644,21.8634645 8.00007644,21.3645449 L8.00007644,5.76875495 C8.00007644,5.73962096 7.98333556,5.71276306 7.95696294,5.69978933 Z" id="medium" fill="#FFD576"></path>
                    </g>
                </g>
            </g>
        </g>
    </g>
</svg>