<?xml version="1.0" encoding="UTF-8" standalone="no"?>
<svg width="60px" height="60px" viewBox="0 0 60 60" version="1.1" xmlns="http://www.w3.org/2000/svg" xmlns:xlink="http://www.w3.org/1999/xlink">
    <!-- Generator: sketchtool 39.1 (31720) - http://www.bohemiancoding.com/sketch -->
    <title>expand-image</title>
    <desc>Created with sketchtool.</desc>
    <defs></defs>
    <g id="Page-1" stroke="none" stroke-width="1" fill="none" fill-rule="evenodd">
        <g id="sandcastle-website-test" transform="translate(-330.000000, -1666.000000)">
            <g id="section-3" transform="translate(0.000000, 1470.000000)">
                <g id="image-overlay">
                    <g id="expand-image" transform="translate(310.000000, 176.000000)">
                        <g id="Group">
                            <polygon id="Shape" points="0 0 100 0 100 100 0 100"></polygon>
                            <path d="M29.1666667,58.3333333 L20.8333333,58.3333333 L20.8333333,79.1666667 L41.6666667,79.1666667 L41.6666667,70.8333333 L29.1666667,70.8333333 L29.1666667,58.3333333 L29.1666667,58.3333333 Z M20.8333333,41.6666667 L29.1666667,41.6666667 L29.1666667,29.1666667 L41.6666667,29.1666667 L41.6666667,20.8333333 L20.8333333,20.8333333 L20.8333333,41.6666667 L20.8333333,41.6666667 Z M70.8333333,70.8333333 L58.3333333,70.8333333 L58.3333333,79.1666667 L79.1666667,79.1666667 L79.1666667,58.3333333 L70.8333333,58.3333333 L70.8333333,70.8333333 L70.8333333,70.8333333 Z M58.3333333,20.8333333 L58.3333333,29.1666667 L70.8333333,29.1666667 L70.8333333,41.6666667 L79.1666667,41.6666667 L79.1666667,20.8333333 L58.3333333,20.8333333 L58.3333333,20.8333333 Z" id="Shape" fill="#FFFFFF"></path>
                        </g>
                    </g>
                </g>
            </g>
        </g>
    </g>
</svg>