<?xml version="1.0" encoding="UTF-8" standalone="no"?>
<svg width="24px" height="24px" viewBox="0 0 24 24" version="1.1" xmlns="http://www.w3.org/2000/svg" xmlns:xlink="http://www.w3.org/1999/xlink">
    <!-- Generator: sketchtool 39.1 (31720) - http://www.bohemiancoding.com/sketch -->
    <title>icon-github</title>
    <desc>Created with sketchtool.</desc>
    <defs></defs>
    <g id="Page-1" stroke="none" stroke-width="1" fill="none" fill-rule="evenodd">
        <g id="sandcastle-website-test" transform="translate(-708.000000, -3388.000000)">
            <g id="footer" transform="translate(0.000000, 3189.000000)">
                <g id="social-icons" transform="translate(612.000000, 199.000000)">
                    <g id="icon-github" transform="translate(96.000000, 0.000000)">
                        <rect id="bg" fill="#D8D8D8" opacity="0" x="0" y="0" width="24" height="24"></rect>
                        <path d="M11.99925,0 C5.373,0 0,5.39354605 0,12.048322 C0,17.3703356 3.438,21.8859151 8.20725,23.4792061 C8.80725,23.5898931 9.02625,23.2179244 9.02625,22.8986638 C9.02625,22.6125341 9.01575,21.8550432 9.00975,20.8498241 C5.6715,21.5779491 4.96725,19.2346969 4.96725,19.2346969 C4.422,17.8432027 3.63525,17.4727399 3.63525,17.4727399 C2.5455,16.7250377 3.71775,16.7400971 3.71775,16.7400971 C4.9215,16.8251831 5.55525,17.9817497 5.55525,17.9817497 C6.62625,19.8227689 8.364,19.2911699 9.048,18.9824509 C9.15675,18.2038768 9.46725,17.6730308 9.81,17.3718415 C7.14525,17.0676404 4.344,16.0345614 4.344,11.4180835 C4.344,10.1026396 4.81125,9.02739405 5.57925,8.1848172 C5.4555,7.8798631 5.04375,6.6555289 5.69625,4.99672925 C5.69625,4.99672925 6.70425,4.67295083 8.99625,6.23160507 C9.954,5.96429963 10.98,5.8310234 12.00075,5.82575259 C13.02,5.8310234 14.04675,5.96429963 15.00525,6.23160507 C17.29575,4.67295083 18.3015,4.99672925 18.3015,4.99672925 C18.95625,6.6555289 18.5445,7.8798631 18.42075,8.1848172 C19.19025,9.02739405 19.6545,10.1026396 19.6545,11.4180835 C19.6545,16.045856 16.84875,17.0646285 14.17575,17.3628059 C14.60625,17.7347746 14.99025,18.4696763 14.99025,19.593865 C14.99025,21.2044744 14.97525,22.503353 14.97525,22.8986638 C14.97525,23.2209363 15.19125,23.5959169 15.80025,23.4777001 C20.565,21.8813972 24,17.3688296 24,12.048322 C24,5.39354605 18.627,0 11.99925,0" id="github" fill="#FFD576"></path>
                    </g>
                </g>
            </g>
        </g>
    </g>
</svg>